<svg xmlns="http://www.w3.org/2000/svg" version="1.1" xmlns:xlink="http://www.w3.org/1999/xlink" xmlns:svgjs="http://svgjs.dev/svgjs" width="1920" height="1080" preserveAspectRatio="none" viewBox="0 0 1920 1080"><g mask="url(&quot;#SvgjsMask1023&quot;)" fill="none"><rect width="1920" height="1080" x="0" y="0" fill="#0e2a47"></rect><path d="M869.3695753415053 80.88875636588202L669.8423843552367 266.9508720552479 855.9045000446026 466.4780630415164 1055.4316910308712 280.41594735215057z" fill="rgba(28, 83, 142, 0.4)" class="triangle-float3"></path><path d="M1605.2316690861762 758.5009809474074L1765.5200844413325 574.1102518793168 1581.1293553732419 413.8218365241605 1420.8409400180856 598.2125655922512z" fill="rgba(28, 83, 142, 0.4)" class="triangle-float2"></path><path d="M403.627,243.241C459.919,244.633,513.624,220.521,545.146,173.862C581.183,120.521,601.046,52.455,570.972,-4.461C539.296,-64.408,471.427,-93.659,403.627,-93.964C335.248,-94.272,264.106,-67.203,233.65,-5.98C205.373,50.864,237.961,114.699,273.734,167.15C304.038,211.583,349.86,241.911,403.627,243.241" fill="rgba(28, 83, 142, 0.4)" class="triangle-float3"></path><path d="M1733.9459443407484 1120.3585841975423L1896.0566594241182 1160.7773250287587 1875.629413129258 897.4018819880959z" fill="rgba(28, 83, 142, 0.4)" class="triangle-float3"></path><path d="M646.416,809.858C737.804,814.528,834.07,784.613,880.418,705.712C927.242,626,905.016,528.057,859.078,447.831C812.798,367.007,739.512,294.327,646.416,297.051C556.52,299.681,494.921,379.453,454.27,459.675C418.081,531.092,411.954,613.551,450.468,683.742C490.516,756.729,563.272,805.609,646.416,809.858" fill="rgba(28, 83, 142, 0.4)" class="triangle-float1"></path><path d="M840.808,595.682C893.091,600.443,953.719,590.402,978.388,544.06C1002.3,499.141,967.195,450.417,941.526,406.479C916.211,363.147,890.99,309.088,840.808,308.563C790.187,308.033,757.83,358.48,736.37,404.331C718.475,442.566,720.493,485.359,740.718,522.415C761.948,561.313,796.676,591.663,840.808,595.682" fill="rgba(28, 83, 142, 0.4)" class="triangle-float2"></path><path d="M1191.731,442.061C1225.807,443.997,1260.347,427.291,1275.928,396.924C1290.522,368.479,1277.003,335.975,1260.076,308.854C1244.404,283.742,1221.297,263.452,1191.731,262.016C1159.591,260.455,1126.285,273.382,1110.829,301.605C1095.829,328.995,1107.033,361.155,1122.619,388.215C1138.242,415.338,1160.48,440.286,1191.731,442.061" fill="rgba(28, 83, 142, 0.4)" class="triangle-float2"></path><path d="M1616.9355766097146 507.98570341224126L1797.9046820207225 665.2997467004969 1955.218725308978 484.33064128948917 1774.2496198979702 327.0165980012335z" fill="rgba(28, 83, 142, 0.4)" class="triangle-float2"></path><path d="M309.2116541284589 579.923740560494L288.8488361214901 386.18446872718687 115.47238229515173 600.2865585674629z" fill="rgba(28, 83, 142, 0.4)" class="triangle-float1"></path><path d="M438.9008868809367 623.1242731141734L259.0001158474065 671.3285394303441 307.2043821635772 851.2293104638744 487.1051531971074 803.0250441477036z" fill="rgba(28, 83, 142, 0.4)" class="triangle-float2"></path></g><defs><mask id="SvgjsMask1023"><rect width="1920" height="1080" fill="#ffffff"></rect></mask><style>
                @keyframes float1 {
                    0%{transform: translate(0, 0)}
                    50%{transform: translate(-10px, 0)}
                    100%{transform: translate(0, 0)}
                }

                .triangle-float1 {
                    animation: float1 5s infinite;
                }

                @keyframes float2 {
                    0%{transform: translate(0, 0)}
                    50%{transform: translate(-5px, -5px)}
                    100%{transform: translate(0, 0)}
                }

                .triangle-float2 {
                    animation: float2 4s infinite;
                }

                @keyframes float3 {
                    0%{transform: translate(0, 0)}
                    50%{transform: translate(0, -10px)}
                    100%{transform: translate(0, 0)}
                }

                .triangle-float3 {
                    animation: float3 6s infinite;
                }
            </style></defs></svg>